<?xml version="1.0" standalone="no"?>
<!DOCTYPE svg PUBLIC "-//W3C//DTD SVG 1.1//EN"
  "http://www.w3.org/Graphics/SVG/1.1/DTD/svg11.dtd">
<svg width="1000mm" height="437.9999999999999mm" viewBox="-500 -265.99999999999994 1000 437.9999999999999" xmlns="http://www.w3.org/2000/svg" version="1.1">
	<title>svgOutput</title>
	<desc>made with tinkercad</desc>
<path d="M 499 170.99999999999997 L 493 170.99999999999997 L 415 170.99999999999997 L 393.21600341796875 170.99999999999997 L 390 170.99999999999997 L 334 170.99999999999997 L 327.67999267578125 170.99999999999997 L 319 170.99999999999997 L 280 170.99999999999997 L 262.1440124511719 170.99999999999997 L 237 170.99999999999997 L 202 170.99999999999997 L 196.60800170898438 170.99999999999997 L 131.07200622558594 170.99999999999997 L 0 170.99999999999997 L -131.07200622558594 170.99999999999997 L -262.1440124511719 170.99999999999997 L -286 170.99999999999997 L -318 170.99999999999997 L -327.67999267578125 170.99999999999997 L -353 170.99999999999997 L -393.21600341796875 170.99999999999997 L -416 170.99999999999997 L -499 170.99999999999997 L -499 131.0720062255859 L -499 122.62766265869138 L -499 80.23367309570311 L -499 65.53600311279295 L -499 1.1102230246251565e-16 L -499 -31.999999999999993 L -499 -65.53600311279295 L -499 -101.7345275878906 L -499 -131.0720062255859 L -499 -144.12947082519528 L -499 -262.1440124511718 L -499 -264.99999999999994 L -262.1440124511719 -264.99999999999994 L -196.60800170898438 -264.99999999999994 L -188.41600036621094 -264.99999999999994 L -184.32000732421875 -264.99999999999994 L -180.2239990234375 -264.99999999999994 L -163.83999633789062 -264.99999999999994 L -131.07200622558594 -264.99999999999994 L 0 -264.99999999999994 L 262.1440124511719 -264.99999999999994 L 499 -264.99999999999994 L 499 -262.1440124511718 L 499 -131.0720062255859 L 499 -65.53600311279295 L 499 1.1102230246251565e-16 L 499 131.0720062255859 L 499 170.99999999999997 z" fill="none" stroke="rgb(255,0,0)" stroke-width="0.001mm" />
</svg>