<?xml version="1.0" standalone="no"?>
<!DOCTYPE svg PUBLIC "-//W3C//DTD SVG 1.1//EN"
  "http://www.w3.org/Graphics/SVG/1.1/DTD/svg11.dtd">
<svg width="359mm" height="319.9999999999999mm" viewBox="-171 -109.99999999999997 359 319.9999999999999" xmlns="http://www.w3.org/2000/svg" version="1.1">
	<title>svgOutput</title>
	<desc>made with tinkercad</desc>
<path d="M 187 -108.99999999999997 L 187 -106.4960021972656 L 187 -102.40000152587888 L 187 -98.30400085449216 L 187 -81.9199981689453 L 187 -73.72799682617186 L 187 -65.53600311279295 L 187 -32.76800155639648 L 187 1.1102230246251565e-16 L 187 208.99999999999994 L 131.07200622558594 208.99999999999994 L 0 208.99999999999994 L -131.07200622558594 208.99999999999994 L -170 208.99999999999994 L -170 131.0720062255859 L -170 65.53600311279295 L -170 32.76800155639648 L -170 1.1102230246251565e-16 L -170 -32.76800155639648 L -170 -49.15200042724608 L -170 -65.53600311279295 L -170 -81.9199981689453 L -170 -90.11199951171874 L -170 -98.30400085449216 L -170 -99.9719314575195 L -170 -108.99999999999997 L -166.25779724121094 -108.99999999999997 L -164.7296905517578 -108.99999999999997 L -164.7296600341797 -108.99999999999997 L -163.83999633789062 -108.99999999999997 L -159.74400329589844 -108.99999999999997 L -158.8523712158203 -108.99999999999997 L -158.1165313720703 -108.99999999999997 L -155.6479949951172 -108.99999999999997 L -147.45599365234375 -108.99999999999997 L -133.86105346679688 -108.99999999999997 L -132.4626922607422 -108.99999999999997 L -131.26185607910156 -108.99999999999997 L -131.2611083984375 -108.99999999999997 L -131.07200622558594 -108.99999999999997 L -131.06434631347656 -108.99999999999997 L -122.87999725341797 -108.99999999999997 L -114.68800354003906 -108.99999999999997 L -98.30400085449219 -108.99999999999997 L -92 -108.99999999999997 L -65.53600311279297 -108.99999999999997 L 0 -108.99999999999997 L 65.53600311279297 -108.99999999999997 L 93 -108.99999999999997 L 98.30400085449219 -108.99999999999997 L 131.07200622558594 -108.99999999999997 L 163.83999633789062 -108.99999999999997 L 172.03199768066406 -108.99999999999997 L 180.2239990234375 -108.99999999999997 L 183.96568298339844 -108.99999999999997 L 183.96913146972656 -108.99999999999997 L 183.9695281982422 -108.99999999999997 L 184.01358032226562 -108.99999999999997 L 184.32000732421875 -108.99999999999997 L 187 -108.99999999999997 z" fill="none" stroke="rgb(255,0,0)" stroke-width="0.001mm" />
</svg>