<?xml version="1.0" standalone="no"?>
<!DOCTYPE svg PUBLIC "-//W3C//DTD SVG 1.1//EN"
  "http://www.w3.org/Graphics/SVG/1.1/DTD/svg11.dtd">
<svg width="867mm" height="483.9999999999999mm" viewBox="-431 -347.99999999999994 867 483.9999999999999" xmlns="http://www.w3.org/2000/svg" version="1.1">
	<title>svgOutput</title>
	<desc>made with tinkercad</desc>
<path d="M 100 -344.99999999999994 L 262.1440124511719 -344.99999999999994 L 435 -344.99999999999994 L 435 1.1102230246251565e-16 L 435 79.99999999999999 L 262.1440124511719 79.99999999999999 L 131.07200622558594 79.99999999999999 L 100 79.99999999999999 L 100 65.53600311279295 L 100 1.1102230246251565e-16 L 100 -101.99999999999997 L 100 -131.0720062255859 L 100 -262.1440124511718 L 100 -344.99999999999994 M 98 -101.99999999999997 L 98 1.1102230246251565e-16 L 98 65.53600311279295 L 98 98.30400085449216 L 98 98.99999999999997 L 90.11199951171875 98.99999999999997 L 81.91999816894531 98.99999999999997 L 73.72799682617188 98.99999999999997 L 65.53600311279297 98.99999999999997 L 57.34400177001953 98.99999999999997 L 49.152000427246094 98.99999999999997 L 40.959999084472656 98.99999999999997 L 32.768001556396484 98.99999999999997 L 24.576000213623047 98.99999999999997 L 16.384000778198242 98.99999999999997 L 8.192000389099121 98.99999999999997 L 0 98.99999999999997 L -8.192000389099121 98.99999999999997 L -16.384000778198242 98.99999999999997 L -24.576000213623047 98.99999999999997 L -32.768001556396484 98.99999999999997 L -40.959999084472656 98.99999999999997 L -49.152000427246094 98.99999999999997 L -57.34400177001953 98.99999999999997 L -65.53600311279297 98.99999999999997 L -73.72799682617188 98.99999999999997 L -81.91999816894531 98.99999999999997 L -90.11199951171875 98.99999999999997 L -98.30400085449219 98.99999999999997 L -100 98.99999999999997 L -100 98.30400085449216 L -100 79.99999999999999 L -131.07200622558594 79.99999999999999 L -262.1440124511719 79.99999999999999 L -430 79.99999999999999 L -430 1.1102230246251565e-16 L -430 -344.99999999999994 L -262.1440124511719 -344.99999999999994 L -96 -344.99999999999994 L -96 -346.99999999999994 L 0 -346.99999999999994 L 96 -346.99999999999994 L 96 -344.99999999999994 L 96 -262.1440124511718 L 96 -131.0720062255859 L 96 -101.99999999999997 L 98 -101.99999999999997 M 52 114.99999999999997 L 53.24800109863281 114.99999999999997 L 57.34400177001953 114.99999999999997 L 65.53600311279297 114.99999999999997 L 69.63200378417969 114.99999999999997 L 71.68000030517578 114.99999999999997 L 72 114.99999999999997 L 72 116.73600006103513 L 72 118.78399658203122 L 72 122.87999725341794 L 72 131.0720062255859 L 72 133.11999511718747 L 72 134.99999999999997 L 71.68000030517578 134.99999999999997 L 69.63200378417969 134.99999999999997 L 65.53600311279297 134.99999999999997 L 57.34400177001953 134.99999999999997 L 52 134.99999999999997 L 52 131.0720062255859 L 52 122.87999725341794 L 52 118.99999999999997 L 52 118.78399658203122 L 52 114.99999999999997 M -61 74.99999999999999 L -65.53600311279297 74.99999999999999 L -81 74.99999999999999 L -81 65.53600311279295 L -81 1.1102230246251565e-16 L -81 -75.99999999999999 L -81.00299835205078 -75.99999999999999 L -81.00299835205078 1.1102230246251565e-16 L -81.00299835205078 65.53600311279295 L -81.00299835205078 75.56500244140624 L -81 75.56500244140624 L -65.53600311279297 75.56500244140624 L -61 75.56500244140624 L -52.00299835205078 75.56500244140624 L -31.99799919128418 75.56500244140624 L -17.003000259399414 75.56500244140624 L 0 75.56500244140624 L 58 75.56500244140624 L 58 65.53600311279295 L 58 1.1102230246251565e-16 L 58 -75.99999999999999 L 0 -75.99999999999999 L -61 -75.99999999999999 L -61 1.1102230246251565e-16 L -61 65.53600311279295 L -61 74.99999999999999 M -79 114.99999999999997 L -77.8239974975586 114.99999999999997 L -73.72799682617188 114.99999999999997 L -65.53600311279297 114.99999999999997 L -61.439998626708984 114.99999999999997 L -59.391998291015625 114.99999999999997 L -59 114.99999999999997 L -59 116.73600006103513 L -59 118.78399658203122 L -59 118.99999999999997 L -59 122.87999725341794 L -59 131.0720062255859 L -59 133.11999511718747 L -59 134.99999999999997 L -59.391998291015625 134.99999999999997 L -61.439998626708984 134.99999999999997 L -65.53600311279297 134.99999999999997 L -73.72799682617188 134.99999999999997 L -77.8239974975586 134.99999999999997 L -79 134.99999999999997 L -79 133.11999511718747 L -79 131.0720062255859 L -79 122.87999725341794 L -79 118.78399658203122 L -79 116.73600006103513 L -79 114.99999999999997 z" fill="none" stroke="rgb(255,0,0)" stroke-width="0.001mm" />
</svg>