<?xml version="1.0" standalone="no"?>
<!DOCTYPE svg PUBLIC "-//W3C//DTD SVG 1.1//EN"
  "http://www.w3.org/Graphics/SVG/1.1/DTD/svg11.dtd">
<svg width="223mm" height="226.99999999999994mm" viewBox="-121 -56.999999999999986 223 226.99999999999994" xmlns="http://www.w3.org/2000/svg" version="1.1">
	<title>svgOutput</title>
	<desc>made with tinkercad</desc>
<path d="M -54 133.49999999999997 L -54.926998138427734 133.35299682617185 L -55.76300048828125 132.92700195312497 L -56.426998138427734 132.26300048828122 L -56.85300064086914 131.42700195312497 L -56.90929412841797 131.0720062255859 L -56.920711517333984 130.99999999999997 L -57 130.99999999999997 L -68 130.99999999999997 L -69.00299835205078 130.99999999999997 L -69.72955322265625 130.99999999999997 L -71.39600372314453 130.99999999999997 L -71.39600372314453 131.1260070800781 L -71.39600372314453 131.96200561523435 L -71.98406219482422 132.30146789550778 L -74.58528137207031 133.8030853271484 L -75.33000183105469 134.23300170898435 L -75.80313873291016 133.9598693847656 L -76 133.8462219238281 L -76.39151763916016 133.62020874023435 L -77.61100006103516 132.91622924804685 L -78.02100372314453 132.6795501708984 L -79.26399993896484 131.96200561523435 L -79.26399993896484 127.41899871826169 L -78.02100372314453 126.7014465332031 L -77.61100006103516 126.46476745605466 L -76 125.53477478027341 L -75.33000183105469 125.14800262451169 L -74 125.9157791137695 L -74 86.99999999999999 L -74.99800109863281 86.99999999999999 L -76 86.99999999999999 L -77.61100006103516 86.99999999999999 L -78.02100372314453 86.99999999999999 L -79.26399993896484 86.99999999999999 L -83.3290023803711 86.99999999999999 L -84 86.99999999999999 L -84 89.99999999999999 L -85 89.99999999999999 L -85 86.99999999999999 L -85.99800109863281 86.99999999999999 L -90.45899963378906 86.99999999999999 L -91 86.99999999999999 L -91 89.99999999999999 L -92 89.99999999999999 L -92 86.99999999999999 L -92.99800109863281 86.99999999999999 L -97.24299621582031 86.99999999999999 L -98 86.99999999999999 L -98 89.99999999999999 L -99 89.99999999999999 L -99 86.99999999999999 L -99.99800109863281 86.99999999999999 L -103 86.99999999999999 L -104.60299682617188 86.99999999999999 L -105 86.99999999999999 L -105 89.99999999999999 L -106 89.99999999999999 L -106 86.99999999999999 L -106.99800109863281 86.99999999999999 L -111 86.99999999999999 L -111.00299835205078 86.99999999999999 L -112 86.99999999999999 L -112 89.99999999999999 L -113 89.99999999999999 L -113 86.99999999999999 L -113.99800109863281 86.99999999999999 L -119.00299835205078 86.99999999999999 L -120 86.99999999999999 L -120 46.99999999999999 L -119.00299835205078 46.99999999999999 L -113.99800109863281 46.99999999999999 L -113 46.99999999999999 L -112 46.99999999999999 L -111.00299835205078 46.99999999999999 L -111 46.99999999999999 L -106.99800109863281 46.99999999999999 L -106 46.99999999999999 L -105 46.99999999999999 L -104.60299682617188 46.99999999999999 L -103 46.99999999999999 L -99.99800109863281 46.99999999999999 L -99 46.99999999999999 L -98 46.99999999999999 L -97.24299621582031 46.99999999999999 L -92.99800109863281 46.99999999999999 L -92 46.99999999999999 L -91 46.99999999999999 L -90.45899963378906 46.99999999999999 L -85.99800109863281 46.99999999999999 L -85 46.99999999999999 L -84 46.99999999999999 L -83.3290023803711 46.99999999999999 L -76 46.99999999999999 L -74.99800109863281 46.99999999999999 L -74 46.99999999999999 L -74 45.99999999999999 L -76 45.99999999999999 L -84 45.99999999999999 L -85 45.99999999999999 L -91 45.99999999999999 L -92 45.99999999999999 L -98 45.99999999999999 L -99 45.99999999999999 L -103 45.99999999999999 L -105 45.99999999999999 L -106 45.99999999999999 L -111 45.99999999999999 L -112 45.99999999999999 L -112.00299835205078 45.99999999999999 L -113 45.99999999999999 L -120 45.99999999999999 L -120 5.999999999999998 L -113 5.999999999999998 L -112.00299835205078 5.999999999999998 L -112 5.999999999999998 L -111 5.999999999999998 L -106 5.999999999999998 L -105 5.999999999999998 L -103 5.999999999999998 L -99 5.999999999999998 L -98 5.999999999999998 L -92 5.999999999999998 L -91 5.999999999999998 L -85 5.999999999999998 L -84 5.999999999999998 L -76 5.999999999999998 L -68 5.999999999999998 L -48.65999984741211 5.999999999999998 L -43.4640007019043 5.999999999999998 L -43 5.999999999999998 L -43 6.267898559570311 L -43 9.732101440429686 L -40 7.999999999999998 L -40 -35.99999999999999 L -43 -37.73210144042968 L -47 -40.04156875610351 L -48.65999984741211 -40.99999999999999 L -48.65999984741211 -50.999999999999986 L -40 -55.999999999999986 L -31.34000015258789 -50.999999999999986 L -31.34000015258789 -47.999999999999986 L -25.003000259399414 -47.999999999999986 L 16 -47.999999999999986 L 16.34000015258789 -47.999999999999986 L 16.34000015258789 -50.999999999999986 L 25 -55.999999999999986 L 33.65999984741211 -50.999999999999986 L 33.65999984741211 -40.99999999999999 L 27 -37.15473556518554 L 25 -35.99999999999999 L 25 -34.99999999999999 L 27 -34.99999999999999 L 69.11599731445312 -34.99999999999999 L 75 -34.99999999999999 L 76 -34.99999999999999 L 80 -34.99999999999999 L 82 -34.99999999999999 L 83 -34.99999999999999 L 88 -34.99999999999999 L 89 -34.99999999999999 L 90 -34.99999999999999 L 96 -34.99999999999999 L 97 -34.99999999999999 L 101 -34.99999999999999 L 101 4.999999999999999 L 97 4.999999999999999 L 96 4.999999999999999 L 90 4.999999999999999 L 89 4.999999999999999 L 88 4.999999999999999 L 83 4.999999999999999 L 82 4.999999999999999 L 80 4.999999999999999 L 76 4.999999999999999 L 75 4.999999999999999 L 69 4.999999999999999 L 68 4.999999999999999 L 53 4.999999999999999 L 45 4.999999999999999 L 25 4.999999999999999 L 25 5.999999999999998 L 45 5.999999999999998 L 53 5.999999999999998 L 67.99800109863281 5.999999999999998 L 68 5.999999999999998 L 69 5.999999999999998 L 75 5.999999999999998 L 76 5.999999999999998 L 80 5.999999999999998 L 82 5.999999999999998 L 83 5.999999999999998 L 88 5.999999999999998 L 89 5.999999999999998 L 90 5.999999999999998 L 96 5.999999999999998 L 97 5.999999999999998 L 101 5.999999999999998 L 101 45.99999999999999 L 97 45.99999999999999 L 96 45.99999999999999 L 90 45.99999999999999 L 89 45.99999999999999 L 88 45.99999999999999 L 83 45.99999999999999 L 82 45.99999999999999 L 80 45.99999999999999 L 76 45.99999999999999 L 75 45.99999999999999 L 69 45.99999999999999 L 68 45.99999999999999 L 67.99800109863281 45.99999999999999 L 62 45.99999999999999 L 62 46.99999999999999 L 62.24800109863281 46.99999999999999 L 67.00299835205078 46.99999999999999 L 68 46.99999999999999 L 69 46.99999999999999 L 69.24800109863281 46.99999999999999 L 74.00299835205078 46.99999999999999 L 75 46.99999999999999 L 76 46.99999999999999 L 76.99800109863281 46.99999999999999 L 80 46.99999999999999 L 81.00299835205078 46.99999999999999 L 82 46.99999999999999 L 82.99800109863281 46.99999999999999 L 83 46.99999999999999 L 88 46.99999999999999 L 88.00299835205078 46.99999999999999 L 89 46.99999999999999 L 90 46.99999999999999 L 90.49800109863281 46.99999999999999 L 95.00299835205078 46.99999999999999 L 96 46.99999999999999 L 97 46.99999999999999 L 101 46.99999999999999 L 101 86.99999999999999 L 97 86.99999999999999 L 97 89.99999999999999 L 96 89.99999999999999 L 96 86.99999999999999 L 95.00299835205078 86.99999999999999 L 90.49800109863281 86.99999999999999 L 90 86.99999999999999 L 90 89.99999999999999 L 89 89.99999999999999 L 89 86.99999999999999 L 88.00299835205078 86.99999999999999 L 88 86.99999999999999 L 83 86.99999999999999 L 83 89.99999999999999 L 82 89.99999999999999 L 82 86.99999999999999 L 81.00299835205078 86.99999999999999 L 80 86.99999999999999 L 76.99800109863281 86.99999999999999 L 76 86.99999999999999 L 76 89.99999999999999 L 75 89.99999999999999 L 75 86.99999999999999 L 74.00299835205078 86.99999999999999 L 69.24800109863281 86.99999999999999 L 69 86.99999999999999 L 69 89.99999999999999 L 68 89.99999999999999 L 68 86.99999999999999 L 67.00299835205078 86.99999999999999 L 66.60399627685547 86.99999999999999 L 62.24800109863281 86.99999999999999 L 62 86.99999999999999 L 62 124.76122283935544 L 62 125.53477478027341 L 62.66999816894531 125.14800262451169 L 66.60399627685547 127.41899871826169 L 66.60399627685547 131.1260070800781 L 66.60399627685547 131.96200561523435 L 62.66999816894531 134.23300170898435 L 60.388999938964844 132.91622924804685 L 59.979000091552734 132.6795501708984 L 58.736000061035156 131.96200561523435 L 58.736000061035156 130.99999999999997 L 53 130.99999999999997 L 51.83599853515625 130.99999999999997 L 46.81700134277344 130.99999999999997 L 45 130.99999999999997 L 44.99800109863281 130.99999999999997 L 44.920711517333984 130.99999999999997 L 44.90929412841797 131.0720062255859 L 44.85300064086914 131.42700195312497 L 44.426998138427734 132.26300048828122 L 43.76300048828125 132.92700195312497 L 42.926998138427734 133.35299682617185 L 42 133.49999999999997 L 41.073001861572266 133.35299682617185 L 40.23699951171875 132.92700195312497 L 39.573001861572266 132.26300048828122 L 39.14699935913086 131.42700195312497 L 39.09070587158203 131.0720062255859 L 39.079288482666016 130.99999999999997 L 39 130.99999999999997 L 36 130.99999999999997 L 28.437999725341797 130.99999999999997 L 27 130.99999999999997 L 26.99799919128418 130.99999999999997 L 26.920711517333984 130.99999999999997 L 26.90929412841797 131.0720062255859 L 26.85300064086914 131.42700195312497 L 26.427000045776367 132.26300048828122 L 25.76300048828125 132.92700195312497 L 25 133.31579589843747 L 24.927000045776367 133.35299682617185 L 24 133.49999999999997 L 23.072999954223633 133.35299682617185 L 22.23699951171875 132.92700195312497 L 21.572999954223633 132.26300048828122 L 21.14699935913086 131.42700195312497 L 21.09070587158203 131.0720062255859 L 21.079288482666016 130.99999999999997 L 21 130.99999999999997 L 21 131.0720062255859 L 21 131.99999999999997 L 21 133.3450012207031 L 19.812232971191406 134.03082275390622 L 16 136.2320404052734 L 15.478263854980469 136.53329467773435 L 14.670000076293945 136.99999999999997 L 13.993459701538086 136.6093597412109 L 11 134.88090515136716 L 10.34000015258789 134.49981689453122 L 8.793543815612793 133.60687255859372 L 8.34000015258789 133.3450012207031 L 8.34000015258789 131.5690002441406 L 8.34000015258789 131.50900268554685 L 8.34000015258789 130.99999999999997 L 6.002999782562256 130.99999999999997 L 5.994551181793213 130.99999999999997 L 5.994551181793213 121.99800109863278 L 0.6515759229660034 121.99800109863278 L -10.003000259399414 121.99800109863278 L -16.994550704956055 121.99800109863278 L -16.994550704956055 130.99999999999997 L -17.003000259399414 130.99999999999997 L -19 130.99999999999997 L -19 131.50900268554685 L -19 133.3450012207031 L -19.359830856323242 133.5527648925781 L -24.63348388671875 136.59782409667966 L -24.654518127441406 136.6099700927734 L -25.329999923706055 136.99999999999997 L -26.59637451171875 136.2687835693359 L -29.65999984741211 134.49981689453122 L -30.93059539794922 133.76615905761716 L -31.65999984741211 133.3450012207031 L -31.65999984741211 131.50900268554685 L -31.65999984741211 130.99999999999997 L -32 130.99999999999997 L -33 130.99999999999997 L -33.079288482666016 130.99999999999997 L -33.09070587158203 131.0720062255859 L -33.14699935913086 131.42700195312497 L -33.573001861572266 132.26300048828122 L -34.23699951171875 132.92700195312497 L -35.073001861572266 133.35299682617185 L -36 133.49999999999997 L -36.926998138427734 133.35299682617185 L -37.76300048828125 132.92700195312497 L -38.426998138427734 132.26300048828122 L -38.85300064086914 131.42700195312497 L -38.90929412841797 131.0720062255859 L -38.920711517333984 130.99999999999997 L -39 130.99999999999997 L -43 130.99999999999997 L -48.65999984741211 130.99999999999997 L -51 130.99999999999997 L -51.079288482666016 130.99999999999997 L -51.09070587158203 131.0720062255859 L -51.14699935913086 131.42700195312497 L -51.573001861572266 132.26300048828122 L -52.23699951171875 132.92700195312497 L -53.073001861572266 133.35299682617185 L -54 133.49999999999997 M -120 -34.99999999999999 L -113 -34.99999999999999 L -112 -34.99999999999999 L -111 -34.99999999999999 L -106 -34.99999999999999 L -105 -34.99999999999999 L -103 -34.99999999999999 L -99 -34.99999999999999 L -98 -34.99999999999999 L -92 -34.99999999999999 L -91 -34.99999999999999 L -85 -34.99999999999999 L -84 -34.99999999999999 L -76 -34.99999999999999 L -68 -34.99999999999999 L -48.65999984741211 -34.99999999999999 L -47 -34.99999999999999 L -43 -34.99999999999999 L -43 -34.267898559570305 L -43 4.999999999999999 L -45.19599914550781 4.999999999999999 L -48.65999984741211 4.999999999999999 L -68 4.999999999999999 L -76 4.999999999999999 L -84 4.999999999999999 L -85 4.999999999999999 L -91 4.999999999999999 L -92 4.999999999999999 L -98 4.999999999999999 L -99 4.999999999999999 L -103 4.999999999999999 L -105 4.999999999999999 L -106 4.999999999999999 L -111 4.999999999999999 L -112 4.999999999999999 L -113 4.999999999999999 L -120 4.999999999999999 L -120 -34.99999999999999 M 76 168.99999999999997 L 75 168.99999999999997 L 69 168.99999999999997 L 68 168.99999999999997 L 53 168.99999999999997 L 45 168.99999999999997 L 36 168.99999999999997 L 36 148.99999999999997 L 39 148.99999999999997 L 45 148.99999999999997 L 53 148.99999999999997 L 58.736000061035156 148.99999999999997 L 59.979000091552734 148.99999999999997 L 60.388999938964844 148.99999999999997 L 68 148.99999999999997 L 69 148.99999999999997 L 75 148.99999999999997 L 76 148.99999999999997 L 76 168.99999999999997 M 16.34000015258789 22.999999999999996 L 16.34000015258789 19.999999999999996 L 16 19.999999999999996 L 16 123.1489562988281 L 16.34000015258789 123.34527587890622 L 17 123.72636413574216 L 17 32.618938446044915 L 17 23.381061553955075 L 16.34000015258789 22.999999999999996 z" fill="none" stroke="rgb(255,0,0)" stroke-width="0.001mm" />
</svg>