<?xml version="1.0" standalone="no"?>
<!DOCTYPE svg PUBLIC "-//W3C//DTD SVG 1.1//EN"
  "http://www.w3.org/Graphics/SVG/1.1/DTD/svg11.dtd">
<svg width="21.423498153686523mm" height="21.42349815368652mm" viewBox="-12.211749076843262 -16.211749076843258 21.423498153686523 21.42349815368652" xmlns="http://www.w3.org/2000/svg" version="1.1">
	<title>svgOutput</title>
	<desc>made with tinkercad</desc>
<path d="M 1.8220449686050415 -14.626482963562008 L 1.8254350423812866 -14.624902725219723 L 2.0966904163360596 -14.498478889465328 L 3.355923891067505 -13.910777091979977 L 3.604041576385498 -13.737015724182125 L 4.742489814758301 -12.940192222595211 L 4.7439985275268555 -12.938683509826657 L 5.940192222595215 -11.742489814758299 L 6.113953113555908 -11.494372367858885 L 6.910776615142822 -10.355923652648924 L 7.038780212402344 -10.081278800964354 L 7.6264824867248535 -8.822045326232908 L 7.627586364746094 -8.817931175231932 L 7.704980850219727 -8.529451370239256 L 7.795345306396484 -8.19200038909912 L 8.0646333694458 -7.186389446258543 L 8.090963363647461 -6.884525775909422 L 8.192000389099121 -5.7263779640197745 L 8.211749076843262 -5.499999999999999 L 8.211739540100098 -5.499895572662353 L 8.192000389099121 -5.273587703704833 L 8.185419082641602 -5.198136806488036 L 8.0646333694458 -3.8136107921600333 L 7.986135005950928 -3.521017313003539 L 7.6264824867248535 -2.1779549121856685 L 7.624902725219727 -2.1745650768280025 L 7.49847936630249 -1.9033097028732295 L 6.910776615142822 -0.6440761089324949 L 6.737015724182129 -0.3959584832191465 L 6.45987606048584 1.1102230246251565e-16 L 5.940192222595215 0.7424896359443665 L 5.93868350982666 0.7439982891082764 L 4.742489814758301 1.9401919841766353 L 4.4943718910217285 2.113953351974487 L 3.356684923171997 2.910244226455688 L 3.355923891067505 2.910776853561401 L 3.0812785625457764 3.038780212402343 L 1.8220449686050415 3.6264827251434317 L 1.529451608657837 3.7049808502197257 L 0.1863892674446106 4.0646333694458 L 3.86225556956704e-16 4.080891132354735 L -0.11547404527664185 4.090963840484618 L -1.5 4.211749076843261 L -1.5001046657562256 4.211740016937255 L -1.8018633127212524 4.1854186058044425 L -3.186389207839966 4.0646333694458 L -3.47898268699646 3.986135005950927 L -4.822044849395752 3.6264827251434317 L -4.825435161590576 3.6249027252197257 L -5.0966901779174805 3.4984791278839102 L -6.355923652648926 2.910776853561401 L -6.604041576385498 2.7370154857635494 L -7.742489814758301 1.9401919841766353 L -7.7439985275268555 1.9386833906173702 L -8.940192222595215 0.7424896359443665 L -9.113953590393066 0.4943719804286957 L -9.45997428894043 1.1102230246251565e-16 L -9.91024398803711 -0.6433151364326475 L -9.91077709197998 -0.6440761089324949 L -10.038780212402344 -0.9187214374542233 L -10.626482963562012 -2.1779549121856685 L -10.704980850219727 -2.4705483913421626 L -11.0646333694458 -3.8136107921600333 L -11.090963363647461 -4.115474224090575 L -11.211749076843262 -5.499999999999999 L -11.211739540100098 -5.500104427337646 L -11.185419082641602 -5.801863193511962 L -11.0646333694458 -7.186389446258543 L -10.98613452911377 -7.478982925415037 L -10.795199394226074 -8.19200038909912 L -10.626482963562012 -8.822045326232908 L -10.624902725219727 -8.825434684753416 L -10.498478889465332 -9.096690177917479 L -9.91097354888916 -10.355501174926756 L -9.91077709197998 -10.355923652648924 L -9.737015724182129 -10.604041099548338 L -8.940192222595215 -11.742489814758299 L -8.192000389099121 -12.490681648254391 L -7.742489814758301 -12.940192222595211 L -7.4943718910217285 -13.113953590393063 L -6.355923652648926 -13.910777091979977 L -6.081278324127197 -14.03878021240234 L -4.822044849395752 -14.626482963562008 L -4.817931175231934 -14.62758636474609 L -4.529451370239258 -14.704980850219723 L -3.186389207839966 -15.064633369445797 L -2.884526014328003 -15.090963363647457 L -1.5 -15.211749076843258 L -1.4998953342437744 -15.211739540100094 L -1.1981366872787476 -15.185419082641598 L 0 -15.080893516540524 L 0.1863892674446106 -15.064633369445797 L 0.47898268699645996 -14.986134529113766 L 1.8220449686050415 -14.626482963562008 z" fill="none" stroke="rgb(255,0,0)" stroke-width="0.001mm" />
</svg>