<?xml version="1.0" standalone="no"?>
<!DOCTYPE svg PUBLIC "-//W3C//DTD SVG 1.1//EN"
  "http://www.w3.org/Graphics/SVG/1.1/DTD/svg11.dtd">
<svg width="339mm" height="320.454002380371mm" viewBox="-172 -101.45400238037107 339 320.454002380371" xmlns="http://www.w3.org/2000/svg" version="1.1">
	<title>svgOutput</title>
	<desc>made with tinkercad</desc>
<path d="M 166 217.99999999999994 L 131.07200622558594 217.99999999999994 L 98.30400085449219 217.99999999999994 L 90.11199951171875 217.99999999999994 L 86.01599884033203 217.99999999999994 L 81.91999816894531 217.99999999999994 L 77.8239974975586 217.99999999999994 L 73.72799682617188 217.99999999999994 L 65.53600311279297 217.99999999999994 L 49.152000427246094 217.99999999999994 L 32.768001556396484 217.99999999999994 L 0 217.99999999999994 L -8.192000389099121 217.99999999999994 L -12.288000106811523 217.99999999999994 L -16.384000778198242 217.99999999999994 L -20.479999542236328 217.99999999999994 L -24.576000213623047 217.99999999999994 L -32.768001556396484 217.99999999999994 L -49.152000427246094 217.99999999999994 L -57.34400177001953 217.99999999999994 L -61.439998626708984 217.99999999999994 L -65.53600311279297 217.99999999999994 L -69.63200378417969 217.99999999999994 L -73.72799682617188 217.99999999999994 L -81.91999816894531 217.99999999999994 L -98.30400085449219 217.99999999999994 L -131.07200622558594 217.99999999999994 L -147.45599365234375 217.99999999999994 L -149.50399780273438 217.99999999999994 L -150 217.99999999999994 L -150 217.08799743652338 L -150 215.03999328613276 L -150 212.9920043945312 L -150 196.60800170898432 L -150 180.22399902343747 L -150 163.8399963378906 L -150 131.0720062255859 L -150 114.68800354003903 L -150 108.5690002441406 L -150 106.54686737060544 L -150 106.4960021972656 L -150 105.99061584472653 L -150 103.03313446044919 L -150 101.01100158691403 L -150 98.30400085449216 L -150 81.9199981689453 L -150 65.53600311279295 L -150 49.15200042724608 L -150 32.76800155639648 L -150 16.38400077819824 L -150 1.1102230246251565e-16 L -150 -16.38400077819824 L -150 -32.76800155639648 L -150 -49.15200042724608 L -150 -65.53600311279295 L -150 -73.72799682617186 L -150 -75.77600097656249 L -150 -77.82399749755858 L -150 -79.8720016479492 L -150 -79.99999999999999 L -151 -79.99999999999999 L -151 -79.8720016479492 L -151 -77.82399749755858 L -151 -75.77600097656249 L -151 -73.72799682617186 L -151 -65.53600311279295 L -151 -49.15200042724608 L -151 -32.76800155639648 L -151 -16.38400077819824 L -151 1.1102230246251565e-16 L -151 16.38400077819824 L -151 32.76800155639648 L -151 49.15200042724608 L -151 65.53600311279295 L -151 81.9199981689453 L -151 98.30400085449216 L -151 106.4960021972656 L -151 114.68800354003903 L -151 131.0720062255859 L -151 163.8399963378906 L -151 180.22399902343747 L -151 196.60800170898432 L -151 212.9920043945312 L -151 215.03999328613276 L -151 217.08799743652338 L -151 217.99999999999994 L -151.552001953125 217.99999999999994 L -155.6479949951172 217.99999999999994 L -163.83999633789062 217.99999999999994 L -171 217.99999999999994 L -171 196.60800170898432 L -171 163.8399963378906 L -171 131.0720062255859 L -171 98.30400085449216 L -171 90.00299835205077 L -171 65.53600311279295 L -171 50.9980010986328 L -171 32.76800155639648 L -171 1.1102230246251565e-16 L -171 -32.76800155639648 L -171 -65.53600311279295 L -171 -99.99999999999997 L -163.83999633789062 -99.99999999999997 L -150 -99.99999999999997 L -150 -100.45400238037107 L -131.07200622558594 -100.45400238037107 L -98.30400085449219 -100.45400238037107 L -65.53600311279297 -100.45400238037107 L -32.768001556396484 -100.45400238037107 L 0 -100.45400238037107 L 32.768001556396484 -100.45400238037107 L 65.53600311279297 -100.45400238037107 L 98.30400085449219 -100.45400238037107 L 131.07200622558594 -100.45400238037107 L 166 -100.45400238037107 L 166 -99.99999999999997 L 166 -98.30400085449216 L 166 -81.9199981689453 L 166 -79.8720016479492 L 166 -77.82399749755858 L 166 -73.72799682617186 L 166 -65.53600311279295 L 166 1.1102230246251565e-16 L 166 131.0720062255859 L 166 217.99999999999994 z" fill="none" stroke="rgb(255,0,0)" stroke-width="0.001mm" />
</svg>