<?xml version="1.0" standalone="no"?>
<!DOCTYPE svg PUBLIC "-//W3C//DTD SVG 1.1//EN"
  "http://www.w3.org/Graphics/SVG/1.1/DTD/svg11.dtd">
<svg width="1000mm" height="896.9999999999998mm" viewBox="-500 -396.9999999999999 1000 896.9999999999998" xmlns="http://www.w3.org/2000/svg" version="1.1">
	<title>svgOutput</title>
	<desc>made with tinkercad</desc>
<path d="M 499 -32.99999999999999 L 496 -32.99999999999999 L 491.5199890136719 -32.99999999999999 L 483.3280029296875 -32.99999999999999 L 475.135986328125 -32.99999999999999 L 458.75201416015625 -32.99999999999999 L 455 -32.99999999999999 L 455 -39.99999999999999 L 444 -39.99999999999999 L 444 -32.99999999999999 L 436 -32.99999999999999 L 425.9840087890625 -32.99999999999999 L 418 -32.99999999999999 L 417.7919921875 -32.99999999999999 L 416 -32.99999999999999 L 409.6000061035156 -32.99999999999999 L 398 -32.99999999999999 L 394 -32.99999999999999 L 394 -39.99999999999999 L 393.21600341796875 -39.99999999999999 L 390.0669860839844 -39.99999999999999 L 390.0669860839844 -65.53600311279295 L 390.0669860839844 -128.99999999999997 L 388.4549865722656 -128.99999999999997 L 388.4549865722656 -65.53600311279295 L 388.4549865722656 -39.99999999999999 L 364 -39.99999999999999 L 364 -32.99999999999999 L 360.447998046875 -32.99999999999999 L 358 -32.99999999999999 L 344.0639953613281 -32.99999999999999 L 335.87200927734375 -32.99999999999999 L 327.67999267578125 -32.99999999999999 L 320 -32.99999999999999 L 314 -32.99999999999999 L 314 -39.99999999999999 L 311.2959899902344 -39.99999999999999 L 303 -39.99999999999999 L 303 -32.99999999999999 L 295 -32.99999999999999 L 294.9119873046875 -32.99999999999999 L 278.52801513671875 -32.99999999999999 L 270.33599853515625 -32.99999999999999 L 262.1440124511719 -32.99999999999999 L 257 -32.99999999999999 L 253 -32.99999999999999 L 253 -39.99999999999999 L 245.75999450683594 -39.99999999999999 L 242 -39.99999999999999 L 242 -32.99999999999999 L 235 -32.99999999999999 L 229.37600708007812 -32.99999999999999 L 221.1840057373047 -32.99999999999999 L 212.99200439453125 -32.99999999999999 L 197 -32.99999999999999 L 196.60800170898438 -32.99999999999999 L 192 -32.99999999999999 L 192 -39.99999999999999 L 174 -39.99999999999999 L 174 -32.76800155639648 L 174 -20.999999999999996 L 175 -20.999999999999996 L 175 1.1102230246251565e-16 L 175 6.436596393585203 L 175 7.809999942779539 L 175 8.184000015258787 L 175.76300048828125 8.572999954223631 L 176.427001953125 9.237000465393065 L 176.85299682617188 10.072999954223631 L 177 10.999999999999998 L 176.85299682617188 11.927000045776365 L 176.427001953125 12.76299953460693 L 175.76300048828125 13.427000045776364 L 175 13.815999984741207 L 175 14.189999580383297 L 175 15.56340408325195 L 175 23.61224555969238 L 175 23.999999999999993 L 184 23.999999999999993 L 184 32.76800155639648 L 184 37.99999999999999 L 186 37.99999999999999 L 186 44.99999999999999 L 184 44.99999999999999 L 163.83999633789062 44.99999999999999 L 156 44.99999999999999 L 147.45599365234375 44.99999999999999 L 131.07200622558594 44.99999999999999 L 114.68800354003906 44.99999999999999 L 98.30400085449219 44.99999999999999 L 81.91999816894531 44.99999999999999 L 65.53600311279297 44.99999999999999 L 49.152000427246094 44.99999999999999 L 32.768001556396484 44.99999999999999 L 16.384000778198242 44.99999999999999 L 0 44.99999999999999 L -3.879777431488037 44.99999999999999 L -3.8367693424224854 45.05599975585937 L -3.664050817489624 45.28089523315429 L -3.4669556617736816 45.53751373291015 L -3.4669408798217773 45.53754806518554 L -3.4620749950408936 45.54921340942382 L -3.1768839359283447 46.237476348876946 L -3.1744580268859863 46.243396759033196 L -3.173625946044922 46.24966812133788 L -3.0766611099243164 46.98736190795898 L -3.0749869346618652 46.99991226196288 L -3.0749752521514893 46.99999999999999 L -3.075673818588257 47.005134582519524 L -3.0766611099243164 47.01263809204101 L -3.173625946044922 47.7503318786621 L -3.1744580268859863 47.75660324096679 L -3.174595355987549 47.756938934326165 L -3.1768839359283447 47.76252365112304 L -3.4620749950408936 48.45078659057616 L -3.4669556617736816 48.46248626708983 L -3.4746625423431396 48.472553253173814 L -3.9281163215637207 49.062900543212876 L -3.9320108890533447 49.06798934936522 L -3.932047128677368 49.06801605224608 L -3.937100410461426 49.07188415527342 L -3.937248706817627 49.07198333740233 L -3.9422061443328857 49.07579040527342 L -4.041422367095947 49.15200042724608 L -4.527594089508057 49.52543640136717 L -4.537512302398682 49.53304290771483 L -4.549215316772461 49.53792572021483 L -5.237476348876953 49.82311630249022 L -5.2433977127075195 49.82554244995116 L -5.249669075012207 49.826374053955064 L -5.987362861633301 49.923339843749986 L -6 49.92502593994139 L -6.000093460083008 49.92501068115233 L -6.007108211517334 49.92407989501952 L -6.012637138366699 49.923339843749986 L -6.016016483306885 49.92289352416991 L -6.750330924987793 49.826374053955064 L -6.7566022872924805 49.82554244995116 L -6.760702610015869 49.82386016845702 L -6.762523651123047 49.82311630249022 L -7.450784683227539 49.53792572021483 L -7.462487697601318 49.53304290771483 L -7.4725542068481445 49.52533721923827 L -7.958597183227539 49.15200042724608 L -8.062899589538574 49.07188415527342 L -8.067953109741211 49.06801605224608 L -8.067989349365234 49.06798934936522 L -8.071883201599121 49.062900543212876 L -8.192000389099121 48.906520843505845 L -8.525337219238281 48.472553253173814 L -8.533044815063477 48.46248626708983 L -8.537924766540527 48.45078659057616 L -8.823116302490234 47.76252365112304 L -8.825541496276855 47.75660324096679 L -8.826374053955078 47.7503318786621 L -8.923338890075684 47.01263809204101 L -8.924325942993164 47.005134582519524 L -8.925012588500977 47.00009155273437 L -8.92502498626709 46.99999999999999 L -8.923338890075684 46.98736190795898 L -8.826374053955078 46.24966812133788 L -8.825541496276855 46.243396759033196 L -8.823116302490234 46.237476348876946 L -8.537924766540527 45.54921340942382 L -8.533059120178223 45.53754806518554 L -8.533044815063477 45.53751373291015 L -8.335948944091797 45.28089523315429 L -8.192000389099121 45.093460083007805 L -8.163230895996094 45.05599975585937 L -8.120223045349121 44.99999999999999 L -8.15640926361084 44.99999999999999 L -8.192000389099121 44.99999999999999 L -16.384000778198242 44.99999999999999 L -32.768001556396484 44.99999999999999 L -48 44.99999999999999 L -49 44.99999999999999 L -49 37.99999999999999 L -48 37.99999999999999 L -48 32.76800155639648 L -48 23.999999999999993 L -40.06148910522461 23.999999999999993 L -36 23.999999999999993 L -36 23.61224555969238 L -36 15.56340408325195 L -36 14.189999580383297 L -36 13.815999984741207 L -36.76300048828125 13.427000045776364 L -37.426998138427734 12.76299953460693 L -37.85300064086914 11.927000045776365 L -38 10.999999999999998 L -37.85300064086914 10.072999954223631 L -37.426998138427734 9.237000465393065 L -36.76300048828125 8.572999954223631 L -36 8.184000015258787 L -36 7.809999942779539 L -36 6.436596393585203 L -36 1.1102230246251565e-16 L -36 -20.999999999999996 L -35 -20.999999999999996 L -35 -32.76800155639648 L -35 -39.99999999999999 L -35 -65.53600311279295 L -35 -102.99999999999997 L 0 -102.99999999999997 L 98 -102.99999999999997 L 98 -20.999999999999996 L 99 -20.999999999999996 L 99 -102.99999999999997 L 131.07200622558594 -102.99999999999997 L 174 -102.99999999999997 L 174 -128.99999999999997 L 131.07200622558594 -128.99999999999997 L 99 -128.99999999999997 L 98 -128.99999999999997 L 0 -128.99999999999997 L -36 -128.99999999999997 L -36 -102.99999999999997 L -36 -65.53600311279295 L -36 -39.99999999999999 L -59 -39.99999999999999 L -59 -32.99999999999999 L -65.53600311279297 -32.99999999999999 L -66 -32.99999999999999 L -81.91999816894531 -32.99999999999999 L -98.30400085449219 -32.99999999999999 L -104 -32.99999999999999 L -104.00299835205078 -32.99999999999999 L -109 -32.99999999999999 L -109 -39.002998352050774 L -109 -39.99999999999999 L -114.68800354003906 -39.99999999999999 L -120 -39.99999999999999 L -120 -39.002998352050774 L -120 -32.99999999999999 L -124.99800109863281 -32.99999999999999 L -125 -32.99999999999999 L -131.07200622558594 -32.99999999999999 L -147.45599365234375 -32.99999999999999 L -163 -32.99999999999999 L -163.0030059814453 -32.99999999999999 L -163.83999633789062 -32.99999999999999 L -170 -32.99999999999999 L -170 -39.99999999999999 L -181 -39.99999999999999 L -181 -32.99999999999999 L -184 -32.99999999999999 L -196.60800170898438 -32.99999999999999 L -204 -32.99999999999999 L -212.99200439453125 -32.99999999999999 L -222 -32.99999999999999 L -229.37600708007812 -32.99999999999999 L -231 -32.99999999999999 L -231 -35.002998352050774 L -231 -39.99999999999999 L -246 -39.99999999999999 L -246 -35.002998352050774 L -246 -32.99999999999999 L -262.1440124511719 -32.99999999999999 L -278.52801513671875 -32.99999999999999 L -290 -32.99999999999999 L -294.9119873046875 -32.99999999999999 L -296 -32.99999999999999 L -296 -39.99999999999999 L -307 -39.99999999999999 L -307 -32.99999999999999 L -311 -32.99999999999999 L -327.67999267578125 -32.99999999999999 L -329 -32.99999999999999 L -344.0639953613281 -32.99999999999999 L -349 -32.99999999999999 L -357 -32.99999999999999 L -357 -39.99999999999999 L -360.447998046875 -39.99999999999999 L -363 -39.99999999999999 L -363 -32.76800155639648 L -363 1.1102230246251565e-16 L -363 5.999999999999998 L -376.8320007324219 5.999999999999998 L -387.0052490234375 5.999999999999998 L -387.0052795410156 5.999999999999998 L -387.0054931640625 5.999999999999998 L -387.0054626464844 11.512867927551268 L -387.0054626464844 11.998000144958494 L -387.0052490234375 11.998000144958494 L -376.8320007324219 11.998000144958494 L -363 11.998000144958494 L -363 12.998000144958493 L -376.8320007324219 12.998000144958493 L -387.0052490234375 12.998000144958493 L -387.0054626464844 12.998000144958493 L -387.0054626464844 13.030000686645504 L -387.00555419921875 14.999999999999996 L -393.21600341796875 14.999999999999996 L -425.9840087890625 14.999999999999996 L -426.99444580078125 14.999999999999996 L -426.9945373535156 13.030000686645504 L -426.9945373535156 12.998000144958493 L -426.9947509765625 12.998000144958493 L -442.3680114746094 12.998000144958493 L -458.0052490234375 12.998000144958493 L -458.0054626464844 12.998000144958493 L -458.0054626464844 13.030000686645504 L -458.00555419921875 14.999999999999996 L -458.75201416015625 14.999999999999996 L -491.5199890136719 14.999999999999996 L -497.99444580078125 14.999999999999996 L -497.9945373535156 13.030000686645504 L -497.9945373535156 12.998000144958493 L -498.177978515625 12.998000144958493 L -499 12.998000144958493 L -499 11.998000144958494 L -498.177978515625 11.998000144958494 L -497.9945373535156 11.998000144958494 L -497.9945373535156 11.512867927551268 L -497.9945068359375 5.999999999999998 L -497.9947204589844 5.999999999999998 L -498.177978515625 5.999999999999998 L -499 5.999999999999998 L -499 1.1102230246251565e-16 L -499 -131.0720062255859 L -499 -262.1440124511718 L -499 -395.9999999999999 L -262.1440124511719 -395.9999999999999 L 0 -395.9999999999999 L 262.1440124511719 -395.9999999999999 L 499 -395.9999999999999 L 499 -262.1440124511718 L 499 -131.0720062255859 L 499 -65.53600311279295 L 499 -32.99999999999999 M 444 94.99999999999999 L 450 94.99999999999999 L 450 97.99999999999997 L 450 98.30400085449216 L 450 100.99999999999997 L 448 100.99999999999997 L 448 113.99999999999997 L 450 113.99999999999997 L 450 114.68800354003903 L 450 117.99999999999997 L 450 119.99999999999997 L 444 119.99999999999997 L 444 117.99999999999997 L 432 117.99999999999997 L 432 119.99999999999997 L 426 119.99999999999997 L 426 114.68800354003903 L 426 113.99999999999997 L 428 113.99999999999997 L 428 100.99999999999997 L 426 100.99999999999997 L 426 98.30400085449216 L 426 97.99999999999997 L 426 94.99999999999999 L 432 94.99999999999999 L 432 97.99999999999997 L 444 97.99999999999997 L 444 94.99999999999999 M 355 94.99999999999999 L 360.447998046875 94.99999999999999 L 361 94.99999999999999 L 361 98.30400085449216 L 361 100.99999999999997 L 360.447998046875 100.99999999999997 L 359 100.99999999999997 L 359 113.99999999999997 L 360.447998046875 113.99999999999997 L 361 113.99999999999997 L 361 119.99999999999997 L 360.447998046875 119.99999999999997 L 355 119.99999999999997 L 355 117.99999999999997 L 343 117.99999999999997 L 343 119.99999999999997 L 337 119.99999999999997 L 337 117.99999999999997 L 337 113.99999999999997 L 339 113.99999999999997 L 339 100.99999999999997 L 337 100.99999999999997 L 337 98.30400085449216 L 337 97.99999999999997 L 337 94.99999999999999 L 343 94.99999999999999 L 343 97.99999999999997 L 355 97.99999999999997 L 355 94.99999999999999 M 266 94.99999999999999 L 272 94.99999999999999 L 272 97.99999999999997 L 272 98.30400085449216 L 272 100.99999999999997 L 270 100.99999999999997 L 270 113.99999999999997 L 272 113.99999999999997 L 272 117.99999999999997 L 272 119.99999999999997 L 266 119.99999999999997 L 266 117.99999999999997 L 262.1440124511719 117.99999999999997 L 254 117.99999999999997 L 254 119.99999999999997 L 248 119.99999999999997 L 248 117.99999999999997 L 248 113.99999999999997 L 250 113.99999999999997 L 250 100.99999999999997 L 248 100.99999999999997 L 248 98.30400085449216 L 248 97.99999999999997 L 248 94.99999999999999 L 254 94.99999999999999 L 254 97.99999999999997 L 262.1440124511719 97.99999999999997 L 266 97.99999999999997 L 266 94.99999999999999 M 134 49.07497406005858 L 134.00009155273438 49.07498931884764 L 134.01263427734375 49.076660156249986 L 134.58580017089844 49.15200042724608 L 134.75033569335938 49.17362594604491 L 134.75660705566406 49.174457550048814 L 134.7618408203125 49.176601409912095 L 134.7625274658203 49.17688369750975 L 135.16799926757812 49.34489822387694 L 135.45079040527344 49.46207427978514 L 135.46249389648438 49.46695709228514 L 135.47254943847656 49.474662780761705 L 136.06289672851562 49.92811584472655 L 136.0679473876953 49.93198394775389 L 136.0679931640625 49.93201065063475 L 136.07188415527344 49.937099456787095 L 136.52513122558594 50.52717208862303 L 136.5253448486328 50.52744674682616 L 136.52740478515625 50.53016281127928 L 136.53076171875 50.53455352783202 L 136.53305053710938 50.53751373291014 L 136.53306579589844 50.53755950927733 L 136.5379180908203 50.549213409423814 L 136.8231201171875 51.23747634887694 L 136.82554626464844 51.24339675903319 L 136.8263702392578 51.249668121337876 L 136.92333984375 51.98736190795897 L 136.92501831054688 51.99990844726561 L 136.92501831054688 51.999999999999986 L 136.92333984375 52.012638092041 L 136.8263702392578 52.750331878662095 L 136.82554626464844 52.75660324096678 L 136.8231201171875 52.76252365112303 L 136.6219482421875 53.2480010986328 L 136.5379180908203 53.45078659057616 L 136.53512573242188 53.457485198974595 L 136.53305053710938 53.46248626708983 L 136.52740478515625 53.46983718872069 L 136.5253448486328 53.472553253173814 L 136.52210998535156 53.4767608642578 L 136.07188415527344 54.062900543212876 L 136.06802368164062 54.067951202392564 L 136.0679931640625 54.06798934936522 L 136.06289672851562 54.07188415527342 L 135.47254943847656 54.52533721923827 L 135.46470642089844 54.53136062622069 L 135.46249389648438 54.53304290771483 L 135.45079040527344 54.53792572021483 L 135.16799926757812 54.65510177612303 L 134.7625274658203 54.82311630249022 L 134.75660705566406 54.82554244995116 L 134.75033569335938 54.826374053955064 L 134.01263427734375 54.923339843749986 L 134 54.92502593994139 L 133.99990844726562 54.92501068115233 L 133.98736572265625 54.923339843749986 L 133.24966430664062 54.826374053955064 L 133.24339294433594 54.82554244995116 L 133.2374725341797 54.82311630249022 L 132.54920959472656 54.53792572021483 L 132.54251098632812 54.535129547119126 L 132.53750610351562 54.53304290771483 L 132.53750610351562 54.53304290771483 L 132.53529357910156 54.53136062622069 L 132.53060913085938 54.52775573730467 L 132.52745056152344 54.52533721923827 L 131.93710327148438 54.07188415527342 L 131.9320526123047 54.06801605224608 L 131.9320068359375 54.06798934936522 L 131.92811584472656 54.062900543212876 L 131.4746551513672 53.472553253173814 L 131.46694946289062 53.46248626708983 L 131.4620819091797 53.45078659057616 L 131.3780517578125 53.2480010986328 L 131.1768798828125 52.76252365112303 L 131.17445373535156 52.75660324096678 L 131.1736297607422 52.750331878662095 L 131.07666015625 52.012638092041 L 131.07498168945312 52.00009155273436 L 131.07498168945312 51.999999999999986 L 131.07666015625 51.98736190795897 L 131.1736297607422 51.249668121337876 L 131.17445373535156 51.24339675903319 L 131.1768798828125 51.23747634887694 L 131.19241333007812 51.20000076293944 L 131.4620819091797 50.549213409423814 L 131.46693420410156 50.537563323974595 L 131.46694946289062 50.53751373291014 L 131.46923828125 50.53455352783202 L 131.4746551513672 50.52744674682616 L 131.92811584472656 49.937099456787095 L 131.93197631835938 49.93204879760741 L 131.9320068359375 49.93201065063475 L 131.93710327148438 49.92811584472655 L 132.52745056152344 49.474662780761705 L 132.53060913085938 49.4722442626953 L 132.53750610351562 49.46695709228514 L 132.54920959472656 49.46207427978514 L 133.2374725341797 49.17688369750975 L 133.24339294433594 49.174457550048814 L 133.24966430664062 49.17362594604491 L 133.41419982910156 49.15200042724608 L 133.98736572265625 49.076660156249986 L 134 49.07497406005858 M 165 94.99999999999999 L 165 97.99999999999997 L 177 97.99999999999997 L 177 94.99999999999999 L 183 94.99999999999999 L 183 98.30400085449216 L 183 100.99999999999997 L 181 100.99999999999997 L 181 113.99999999999997 L 183 113.99999999999997 L 183 119.99999999999997 L 177 119.99999999999997 L 177 117.99999999999997 L 165 117.99999999999997 L 165 119.99999999999997 L 163.83999633789062 119.99999999999997 L 159 119.99999999999997 L 159 113.99999999999997 L 161 113.99999999999997 L 161 100.99999999999997 L 159 100.99999999999997 L 159 98.30400085449216 L 159 94.99999999999999 L 163.83999633789062 94.99999999999999 L 165 94.99999999999999 M 68.82637023925781 52.750331878662095 L 68.8255386352539 52.75660324096678 L 68.8255386352539 52.756610870361314 L 68.82311248779297 52.76252365112303 L 68.8220443725586 52.76511764526366 L 68.6219482421875 53.2480010986328 L 68.53792572021484 53.45078659057616 L 68.53304290771484 53.46248626708983 L 68.52533721923828 53.472553253173814 L 68.07188415527344 54.062900543212876 L 68.06798553466797 54.06798934936522 L 68.06795501708984 54.06801605224608 L 68.06289672851562 54.07188415527342 L 67.4725570678711 54.52533721923827 L 67.46470642089844 54.53136062622069 L 67.46248626708984 54.53304290771483 L 67.45748138427734 54.535129547119126 L 67.4507827758789 54.53792572021483 L 66.76252746582031 54.82311630249022 L 66.75659942626953 54.82554244995116 L 66.75032806396484 54.826374053955064 L 66.01263427734375 54.923339843749986 L 66 54.92502593994139 L 65.99990844726562 54.92501068115233 L 65.98736572265625 54.923339843749986 L 65.53600311279297 54.86400985717772 L 65.24967193603516 54.826374053955064 L 65.24340057373047 54.82554244995116 L 65.2394027709961 54.823905944824205 L 65.23747253417969 54.82311630249022 L 64.5492172241211 54.53792572021483 L 64.54251861572266 54.535129547119126 L 64.53751373291016 54.53304290771483 L 64.53529357910156 54.53136062622069 L 64.5274429321289 54.52533721923827 L 63.93709945678711 54.07188415527342 L 63.932010650634766 54.06798934936522 L 63.92811584472656 54.062900543212876 L 63.47466278076172 53.472553253173814 L 63.466957092285156 53.46248626708983 L 63.46487045288086 53.457485198974595 L 63.462074279785156 53.45078659057616 L 63.378047943115234 53.2480010986328 L 63.176883697509766 52.76252365112303 L 63.17445755004883 52.75660324096678 L 63.17362594604492 52.750331878662095 L 63.07666015625 52.012638092041 L 63.074989318847656 52.00009155273436 L 63.074974060058594 51.999999999999986 L 63.07666015625 51.98736190795897 L 63.17362594604492 51.249668121337876 L 63.17445755004883 51.24339675903319 L 63.176883697509766 51.23747634887694 L 63.462074279785156 50.549213409423814 L 63.466957092285156 50.53751373291014 L 63.469234466552734 50.53455352783202 L 63.47466278076172 50.52744674682616 L 63.92811584472656 49.937099456787095 L 63.931983947753906 49.93204879760741 L 63.932010650634766 49.93201065063475 L 63.93709945678711 49.92811584472655 L 64.5274429321289 49.474662780761705 L 64.53751373291016 49.46695709228514 L 64.5492172241211 49.46207427978514 L 65.23747253417969 49.17688369750975 L 65.2394027709961 49.17609405517577 L 65.24340057373047 49.174457550048814 L 65.24967193603516 49.17362594604491 L 65.41419982910156 49.15200042724608 L 65.53600311279297 49.13599014282225 L 65.98736572265625 49.076660156249986 L 65.99990844726562 49.07498931884764 L 66 49.07497406005858 L 66.01263427734375 49.076660156249986 L 66.58580017089844 49.15200042724608 L 66.75032806396484 49.17362594604491 L 66.75659942626953 49.174457550048814 L 66.76252746582031 49.17688369750975 L 67.4507827758789 49.46207427978514 L 67.45748138427734 49.464870452880845 L 67.46248626708984 49.46695709228514 L 67.4725570678711 49.474662780761705 L 68.06289672851562 49.92811584472655 L 68.06795501708984 49.93198394775389 L 68.06798553466797 49.93201065063475 L 68.07188415527344 49.937099456787095 L 68.52533721923828 50.52744674682616 L 68.53076934814453 50.53455352783202 L 68.53304290771484 50.53751373291014 L 68.53306579589844 50.537563323974595 L 68.53792572021484 50.549213409423814 L 68.82311248779297 51.23747634887694 L 68.8255386352539 51.24339675903319 L 68.82637023925781 51.249668121337876 L 68.92333984375 51.98736190795897 L 68.9250259399414 51.999999999999986 L 68.92501068115234 52.00009155273436 L 68.92353820800781 52.01105880737303 L 68.82656860351562 52.748752593994126 L 68.82637023925781 52.750331878662095 M 201 133.99999999999997 L 262.1440124511719 133.99999999999997 L 499 133.99999999999997 L 499 262.1440124511718 L 499 498.9999999999999 L 262.1440124511719 498.9999999999999 L 201 498.9999999999999 L 201 393.21600341796864 L 201 327.6799926757812 L 201 262.1440124511718 L 201 196.60800170898432 L 201 133.99999999999997 M 164 142.99999999999997 L 175 142.99999999999997 L 175 147.45599365234372 L 175 152.99999999999997 L 164 152.99999999999997 L 164 147.45599365234372 L 164 142.99999999999997 M 183 191.99999999999994 L 183 196.60800170898432 L 183 197.99999999999994 L 177 197.99999999999994 L 177 196.60800170898432 L 177 195.99999999999994 L 165 195.99999999999994 L 165 196.60800170898432 L 165 197.99999999999994 L 163.83999633789062 197.99999999999994 L 159 197.99999999999994 L 159 196.60800170898432 L 159 191.99999999999994 L 161 191.99999999999994 L 161 178.99999999999997 L 159 178.99999999999997 L 159 172.99999999999997 L 163.83999633789062 172.99999999999997 L 165 172.99999999999997 L 165 175.99999999999997 L 177 175.99999999999997 L 177 172.99999999999997 L 183 172.99999999999997 L 183 178.99999999999997 L 181 178.99999999999997 L 181 191.99999999999994 L 183 191.99999999999994 M 164 227.99999999999994 L 164 217.99999999999994 L 175 217.99999999999994 L 175 227.99999999999994 L 164 227.99999999999994 M 159 250.99999999999994 L 163.83999633789062 250.99999999999994 L 165 250.99999999999994 L 165 253.99999999999994 L 177 253.99999999999994 L 177 250.99999999999994 L 183 250.99999999999994 L 183 256.99999999999994 L 181 256.99999999999994 L 181 262.1440124511718 L 181 269.99999999999994 L 183 269.99999999999994 L 183 275.99999999999994 L 177 275.99999999999994 L 177 273.99999999999994 L 165 273.99999999999994 L 165 275.99999999999994 L 163.83999633789062 275.99999999999994 L 159 275.99999999999994 L 159 269.99999999999994 L 161 269.99999999999994 L 161 262.1440124511718 L 161 256.99999999999994 L 159 256.99999999999994 L 159 250.99999999999994 M 175 292.99999999999994 L 175 294.91198730468744 L 175 302.99999999999994 L 164 302.99999999999994 L 164 294.91198730468744 L 164 292.99999999999994 L 175 292.99999999999994 M 183 347.99999999999994 L 183 353.99999999999994 L 177 353.99999999999994 L 177 351.99999999999994 L 165 351.99999999999994 L 165 353.99999999999994 L 163.83999633789062 353.99999999999994 L 159 353.99999999999994 L 159 347.99999999999994 L 161 347.99999999999994 L 161 334.99999999999994 L 159 334.99999999999994 L 159 328.99999999999994 L 163.83999633789062 328.99999999999994 L 165 328.99999999999994 L 165 331.99999999999994 L 177 331.99999999999994 L 177 328.99999999999994 L 183 328.99999999999994 L 183 334.99999999999994 L 181 334.99999999999994 L 181 347.99999999999994 L 183 347.99999999999994 M 164 367.99999999999994 L 175 367.99999999999994 L 175 376.8320007324218 L 175 377.99999999999994 L 164 377.99999999999994 L 164 376.8320007324218 L 164 367.99999999999994 M 159 406.9999999999999 L 163.83999633789062 406.9999999999999 L 165 406.9999999999999 L 165 409.9999999999999 L 177 409.9999999999999 L 177 406.9999999999999 L 183 406.9999999999999 L 183 412.9999999999999 L 181 412.9999999999999 L 181 425.9840087890624 L 181 425.9999999999999 L 183 425.9999999999999 L 183 431.9999999999999 L 177 431.9999999999999 L 177 429.9999999999999 L 165 429.9999999999999 L 165 431.9999999999999 L 163.83999633789062 431.9999999999999 L 159 431.9999999999999 L 159 425.9999999999999 L 161 425.9999999999999 L 161 425.9840087890624 L 161 412.9999999999999 L 159 412.9999999999999 L 159 406.9999999999999 M 175 449.9999999999999 L 175 458.75201416015614 L 175 459.9999999999999 L 164 459.9999999999999 L 164 458.75201416015614 L 164 449.9999999999999 L 175 449.9999999999999 M 161 498.9999999999999 L 161 490.9999999999999 L 159 490.9999999999999 L 159 484.9999999999999 L 163.83999633789062 484.9999999999999 L 165 484.9999999999999 L 165 487.9999999999999 L 177 487.9999999999999 L 177 484.9999999999999 L 183 484.9999999999999 L 183 490.9999999999999 L 181 490.9999999999999 L 181 491.51998901367176 L 181 498.9999999999999 L 163.83999633789062 498.9999999999999 L 161 498.9999999999999 M -25 94.99999999999999 L -25 98.30400085449216 L -25 100.99999999999997 L -27 100.99999999999997 L -27 113.99999999999997 L -25 113.99999999999997 L -25 119.99999999999997 L -27 119.99999999999997 L -31 119.99999999999997 L -31 117.99999999999997 L -32.768001556396484 117.99999999999997 L -43 117.99999999999997 L -43 119.99999999999997 L -47 119.99999999999997 L -49 119.99999999999997 L -49 113.99999999999997 L -47 113.99999999999997 L -47 100.99999999999997 L -49 100.99999999999997 L -49 98.30400085449216 L -49 97.99999999999997 L -49 94.99999999999999 L -43 94.99999999999999 L -43 97.99999999999997 L -32.768001556396484 97.99999999999997 L -31 97.99999999999997 L -31 94.99999999999999 L -25 94.99999999999999 M -123 94.99999999999999 L -123 97.99999999999997 L -111 97.99999999999997 L -111 94.99999999999999 L -105 94.99999999999999 L -105 97.99999999999997 L -105 98.30400085449216 L -105 100.99999999999997 L -107 100.99999999999997 L -107 113.99999999999997 L -105 113.99999999999997 L -105 114.68800354003903 L -105 119.99999999999997 L -111 119.99999999999997 L -111 117.99999999999997 L -123 117.99999999999997 L -123 119.99999999999997 L -129 119.99999999999997 L -129 114.68800354003903 L -129 113.99999999999997 L -127 113.99999999999997 L -127 100.99999999999997 L -129 100.99999999999997 L -129 98.30400085449216 L -129 97.99999999999997 L -129 94.99999999999999 L -123 94.99999999999999 M -185 94.99999999999999 L -185 97.99999999999997 L -185 98.30400085449216 L -185 100.99999999999997 L -187 100.99999999999997 L -187 113.99999999999997 L -185 113.99999999999997 L -185 119.99999999999997 L -191 119.99999999999997 L -191 117.99999999999997 L -196.60800170898438 117.99999999999997 L -203 117.99999999999997 L -203 119.99999999999997 L -207 119.99999999999997 L -209 119.99999999999997 L -209 113.99999999999997 L -207 113.99999999999997 L -207 100.99999999999997 L -209 100.99999999999997 L -209 98.30400085449216 L -209 97.99999999999997 L -209 94.99999999999999 L -203 94.99999999999999 L -203 97.99999999999997 L -196.60800170898438 97.99999999999997 L -191 97.99999999999997 L -191 94.99999999999999 L -185 94.99999999999999 M -47 142.99999999999997 L -36 142.99999999999997 L -36 147.45599365234372 L -36 152.99999999999997 L -47 152.99999999999997 L -47 147.45599365234372 L -47 142.99999999999997 M -25 172.99999999999997 L -25 178.99999999999997 L -27 178.99999999999997 L -27 191.99999999999994 L -25 191.99999999999994 L -25 196.60800170898432 L -25 197.99999999999994 L -31 197.99999999999994 L -31 196.60800170898432 L -31 195.99999999999994 L -32.768001556396484 195.99999999999994 L -43 195.99999999999994 L -43 196.60800170898432 L -43 197.99999999999994 L -49 197.99999999999994 L -49 196.60800170898432 L -49 191.99999999999994 L -47 191.99999999999994 L -47 178.99999999999997 L -49 178.99999999999997 L -49 172.99999999999997 L -43 172.99999999999997 L -43 175.99999999999997 L -32.768001556396484 175.99999999999997 L -31 175.99999999999997 L -31 172.99999999999997 L -25 172.99999999999997 M -73 132.99999999999997 L -73 196.60800170898432 L -73 262.1440124511718 L -73 327.6799926757812 L -73 393.21600341796864 L -73 498.9999999999999 L -131.07200622558594 498.9999999999999 L -262.1440124511719 498.9999999999999 L -499 498.9999999999999 L -499 262.1440124511718 L -499 132.99999999999997 L -262.1440124511719 132.99999999999997 L -131.07200622558594 132.99999999999997 L -73 132.99999999999997 M -36 227.99999999999994 L -47 227.99999999999994 L -47 217.99999999999994 L -36 217.99999999999994 L -36 227.99999999999994 M -25 250.99999999999994 L -25 256.99999999999994 L -27 256.99999999999994 L -27 262.1440124511718 L -27 269.99999999999994 L -25 269.99999999999994 L -25 275.99999999999994 L -27 275.99999999999994 L -31 275.99999999999994 L -31 273.99999999999994 L -32.768001556396484 273.99999999999994 L -43 273.99999999999994 L -43 275.99999999999994 L -47 275.99999999999994 L -49 275.99999999999994 L -49 269.99999999999994 L -47 269.99999999999994 L -47 262.1440124511718 L -47 256.99999999999994 L -49 256.99999999999994 L -49 250.99999999999994 L -43 250.99999999999994 L -43 253.99999999999994 L -32.768001556396484 253.99999999999994 L -31 253.99999999999994 L -31 250.99999999999994 L -25 250.99999999999994 M -283 94.99999999999999 L -283 97.99999999999997 L -271 97.99999999999997 L -271 94.99999999999999 L -265 94.99999999999999 L -265 97.99999999999997 L -265 98.30400085449216 L -265 100.99999999999997 L -267 100.99999999999997 L -267 113.99999999999997 L -265 113.99999999999997 L -265 119.99999999999997 L -267 119.99999999999997 L -271 119.99999999999997 L -271 117.99999999999997 L -283 117.99999999999997 L -283 119.99999999999997 L -287 119.99999999999997 L -289 119.99999999999997 L -289 113.99999999999997 L -287 113.99999999999997 L -287 100.99999999999997 L -289 100.99999999999997 L -289 98.30400085449216 L -289 97.99999999999997 L -289 94.99999999999999 L -283 94.99999999999999 M -345 94.99999999999999 L -345 97.99999999999997 L -345 98.30400085449216 L -345 100.99999999999997 L -347 100.99999999999997 L -347 113.99999999999997 L -345 113.99999999999997 L -345 117.99999999999997 L -345 119.99999999999997 L -351 119.99999999999997 L -351 117.99999999999997 L -360.447998046875 117.99999999999997 L -363 117.99999999999997 L -363 119.99999999999997 L -369 119.99999999999997 L -369 117.99999999999997 L -369 113.99999999999997 L -367 113.99999999999997 L -367 100.99999999999997 L -369 100.99999999999997 L -369 98.30400085449216 L -369 97.99999999999997 L -369 94.99999999999999 L -363 94.99999999999999 L -363 97.99999999999997 L -360.447998046875 97.99999999999997 L -351 97.99999999999997 L -351 94.99999999999999 L -345 94.99999999999999 M -458.0054626464844 11.512867927551268 L -458.0054626464844 11.998000144958494 L -458.0052490234375 11.998000144958494 L -442.3680114746094 11.998000144958494 L -426.9947509765625 11.998000144958494 L -426.9945373535156 11.998000144958494 L -426.9945373535156 11.512867927551268 L -426.9945068359375 5.999999999999998 L -426.9947509765625 5.999999999999998 L -442.3680114746094 5.999999999999998 L -458.0052490234375 5.999999999999998 L -458.0052795410156 5.999999999999998 L -458.0054626464844 5.999999999999998 L -458.0054931640625 5.999999999999998 L -458.0054626464844 9.677024841308592 L -458.0054626464844 11.512867927551268 M -36 292.99999999999994 L -36 294.91198730468744 L -36 302.99999999999994 L -47 302.99999999999994 L -47 294.91198730468744 L -47 292.99999999999994 L -36 292.99999999999994 M -25 353.99999999999994 L -27 353.99999999999994 L -31 353.99999999999994 L -31 351.99999999999994 L -32.768001556396484 351.99999999999994 L -43 351.99999999999994 L -43 353.99999999999994 L -47 353.99999999999994 L -49 353.99999999999994 L -49 347.99999999999994 L -47 347.99999999999994 L -47 334.99999999999994 L -49 334.99999999999994 L -49 331.99999999999994 L -49 328.99999999999994 L -43 328.99999999999994 L -43 331.99999999999994 L -32.768001556396484 331.99999999999994 L -31 331.99999999999994 L -31 328.99999999999994 L -25 328.99999999999994 L -25 334.99999999999994 L -27 334.99999999999994 L -27 347.99999999999994 L -25 347.99999999999994 L -25 353.99999999999994 M -36 367.99999999999994 L -36 376.8320007324218 L -36 377.99999999999994 L -47 377.99999999999994 L -47 376.8320007324218 L -47 367.99999999999994 L -36 367.99999999999994 M -31 406.9999999999999 L -25 406.9999999999999 L -25 412.9999999999999 L -27 412.9999999999999 L -27 425.9840087890624 L -27 425.9999999999999 L -25 425.9999999999999 L -25 431.9999999999999 L -27 431.9999999999999 L -31 431.9999999999999 L -31 429.9999999999999 L -32.768001556396484 429.9999999999999 L -43 429.9999999999999 L -43 431.9999999999999 L -47 431.9999999999999 L -49 431.9999999999999 L -49 425.9999999999999 L -47 425.9999999999999 L -47 425.9840087890624 L -47 412.9999999999999 L -49 412.9999999999999 L -49 406.9999999999999 L -43 406.9999999999999 L -43 409.9999999999999 L -32.768001556396484 409.9999999999999 L -31 409.9999999999999 L -31 406.9999999999999 M -36 449.9999999999999 L -36 458.75201416015614 L -36 459.9999999999999 L -47 459.9999999999999 L -47 458.75201416015614 L -47 449.9999999999999 L -36 449.9999999999999 M -25 484.9999999999999 L -25 490.9999999999999 L -27 490.9999999999999 L -27 491.51998901367176 L -27 498.9999999999999 L -32.768001556396484 498.9999999999999 L -47 498.9999999999999 L -47 491.51998901367176 L -47 490.9999999999999 L -49 490.9999999999999 L -49 487.9999999999999 L -49 484.9999999999999 L -43 484.9999999999999 L -43 487.9999999999999 L -32.768001556396484 487.9999999999999 L -31 487.9999999999999 L -31 484.9999999999999 L -25 484.9999999999999 M 147.45599365234375 32.99999999999999 L 131.07200622558594 32.99999999999999 L 118 32.99999999999999 L 118 37.99999999999999 L 131.07200622558594 37.99999999999999 L 147.45599365234375 37.99999999999999 L 156 37.99999999999999 L 156 32.99999999999999 L 147.45599365234375 32.99999999999999 M 81.91999816894531 32.99999999999999 L 65.53600311279297 32.99999999999999 L 49.152000427246094 32.99999999999999 L 49 32.99999999999999 L 49 37.99999999999999 L 49.152000427246094 37.99999999999999 L 65.53600311279297 37.99999999999999 L 81.91999816894531 37.99999999999999 L 90 37.99999999999999 L 90 32.99999999999999 L 81.91999816894531 32.99999999999999 M 16.384000778198242 32.99999999999999 L 0 32.99999999999999 L -16.384000778198242 32.99999999999999 L -20 32.99999999999999 L -20 37.99999999999999 L -16.384000778198242 37.99999999999999 L 0 37.99999999999999 L 16.384000778198242 37.99999999999999 L 21 37.99999999999999 L 21 32.99999999999999 L 16.384000778198242 32.99999999999999 M -156.93299865722656 -64.99999999999999 L -156.93299865722656 -65.53600311279295 L -156.93299865722656 -128.99999999999997 L -158.5449981689453 -128.99999999999997 L -158.5449981689453 -65.53600311279295 L -158.5449981689453 -64.99999999999999 L -156.93299865722656 -64.99999999999999 M -387.0054626464844 12.998000144958493 L -387.0054626464844 12.998000144958493 M -426.9945373535156 11.998000144958494 L -426.9945373535156 11.998000144958494 z" fill="none" stroke="rgb(255,0,0)" stroke-width="0.001mm" />
</svg>