<?xml version="1.0" standalone="no"?>
<!DOCTYPE svg PUBLIC "-//W3C//DTD SVG 1.1//EN"
  "http://www.w3.org/Graphics/SVG/1.1/DTD/svg11.dtd">
<svg width="607mm" height="301.9999999999999mm" viewBox="-315 -201.99999999999994 607 301.9999999999999" xmlns="http://www.w3.org/2000/svg" version="1.1">
	<title>svgOutput</title>
	<desc>made with tinkercad</desc>
<path d="M 291 -49.999999999999986 L 169.9949951171875 -49.999999999999986 L 164.2310028076172 -49.999999999999986 L 158.65699768066406 -49.999999999999986 L 153.26400756835938 -49.999999999999986 L 148.0469970703125 -49.999999999999986 L 143 -49.999999999999986 L 138.11900329589844 -49.999999999999986 L 133.39700317382812 -49.999999999999986 L 128.82899475097656 -49.999999999999986 L 124.41000366210938 -49.999999999999986 L 120.13500213623047 -49.999999999999986 L 116 -49.999999999999986 L 112 -49.999999999999986 L 107 -49.999999999999986 L 102 -49.999999999999986 L 100 -49.999999999999986 L 100 98.99999999999997 L 88 98.99999999999997 L -2 98.99999999999997 L -5 98.99999999999997 L -24 98.99999999999997 L -26 98.99999999999997 L -94 98.99999999999997 L -111 98.99999999999997 L -111 -49.999999999999986 L -114 -49.999999999999986 L -120 -49.999999999999986 L -125 -49.999999999999986 L -129 -49.999999999999986 L -133.13499450683594 -49.999999999999986 L -137.41000366210938 -49.999999999999986 L -141.82899475097656 -49.999999999999986 L -146.39700317382812 -49.999999999999986 L -151.11900329589844 -49.999999999999986 L -156 -49.999999999999986 L -161.0469970703125 -49.999999999999986 L -166.26400756835938 -49.999999999999986 L -171.65699768066406 -49.999999999999986 L -177.2310028076172 -49.999999999999986 L -182.9949951171875 -49.999999999999986 L -314 -49.999999999999986 L -314 -200.99999999999994 L -182.9949951171875 -200.99999999999994 L -177.2310028076172 -200.99999999999994 L -171.65699768066406 -200.99999999999994 L -166.26400756835938 -200.99999999999994 L -161.0469970703125 -200.99999999999994 L -156 -200.99999999999994 L -151.11900329589844 -200.99999999999994 L -146.39700317382812 -200.99999999999994 L -141.82899475097656 -200.99999999999994 L -137.41000366210938 -200.99999999999994 L -133.13499450683594 -200.99999999999994 L -129 -200.99999999999994 L -125 -200.99999999999994 L -120 -200.99999999999994 L -114 -200.99999999999994 L -111 -200.99999999999994 L -94 -200.99999999999994 L 88 -200.99999999999994 L 100 -200.99999999999994 L 102 -200.99999999999994 L 107 -200.99999999999994 L 112 -200.99999999999994 L 116 -200.99999999999994 L 120.13500213623047 -200.99999999999994 L 124.41000366210938 -200.99999999999994 L 128.82899475097656 -200.99999999999994 L 133.39700317382812 -200.99999999999994 L 138.11900329589844 -200.99999999999994 L 143 -200.99999999999994 L 148.0469970703125 -200.99999999999994 L 153.26400756835938 -200.99999999999994 L 158.65699768066406 -200.99999999999994 L 164.2310028076172 -200.99999999999994 L 169.9949951171875 -200.99999999999994 L 291 -200.99999999999994 L 291 -49.999999999999986 z" fill="none" stroke="rgb(255,0,0)" stroke-width="0.001mm" />
</svg>