<?xml version="1.0" standalone="no"?>
<!DOCTYPE svg PUBLIC "-//W3C//DTD SVG 1.1//EN"
  "http://www.w3.org/Graphics/SVG/1.1/DTD/svg11.dtd">
<svg width="213mm" height="217.99999999999994mm" viewBox="-109 -102.99999999999997 213 217.99999999999994" xmlns="http://www.w3.org/2000/svg" version="1.1">
	<title>svgOutput</title>
	<desc>made with tinkercad</desc>
<path d="M 103 113.99999999999997 L 62 113.99999999999997 L 58 113.99999999999997 L 54 113.99999999999997 L 34 113.99999999999997 L 32 113.99999999999997 L 28 113.99999999999997 L 25 113.99999999999997 L -34 113.99999999999997 L -37 113.99999999999997 L -39 113.99999999999997 L -59 113.99999999999997 L -63 113.99999999999997 L -66 113.99999999999997 L -108 113.99999999999997 L -108 -101.99999999999997 L -66 -101.99999999999997 L -63 -101.99999999999997 L -59 -101.99999999999997 L -39 -101.99999999999997 L -34 -101.99999999999997 L 25 -101.99999999999997 L 28 -101.99999999999997 L 34 -101.99999999999997 L 54 -101.99999999999997 L 58 -101.99999999999997 L 62 -101.99999999999997 L 103 -101.99999999999997 L 103 113.99999999999997 z" fill="none" stroke="rgb(255,0,0)" stroke-width="0.001mm" />
</svg>